<?xml version="1.0" encoding="UTF-8" standalone="no"?>
<!-- Created with Inkscape (http://www.inkscape.org/) -->

<svg
   width="67.873764mm"
   height="32.094498mm"
   viewBox="0 0 67.873764 32.094498"
   version="1.1"
   id="svg5"
   inkscape:version="1.1 (c68e22c387, 2021-05-23)"
   sodipodi:docname="logo-t.svg"
   xmlns:inkscape="http://www.inkscape.org/namespaces/inkscape"
   xmlns:sodipodi="http://sodipodi.sourceforge.net/DTD/sodipodi-0.dtd"
   xmlns="http://www.w3.org/2000/svg"
   xmlns:svg="http://www.w3.org/2000/svg">
  <sodipodi:namedview
     id="namedview7"
     pagecolor="#ffffff"
     bordercolor="#666666"
     borderopacity="1.0"
     inkscape:pageshadow="2"
     inkscape:pageopacity="0.0"
     inkscape:pagecheckerboard="0"
     inkscape:document-units="mm"
     showgrid="false"
     inkscape:zoom="0.74118967"
     inkscape:cx="128.17232"
     inkscape:cy="60.038613"
     inkscape:window-width="1920"
     inkscape:window-height="1017"
     inkscape:window-x="-8"
     inkscape:window-y="-8"
     inkscape:window-maximized="1"
     inkscape:current-layer="layer2" />
  <defs
     id="defs2">
    <style
       id="style981">.cls-1{fill:#fff;}</style>
  </defs>
  <g
     inkscape:label="Слой 1"
     inkscape:groupmode="layer"
     id="layer1"
     style="display:none"
     transform="translate(-57.090763,-161.18892)">
    <rect
       style="fill:#3e1d1d;fill-opacity:1;stroke-width:0.257784"
       id="rect846"
       width="211.799"
       height="218.82332"
       x="-0.11510557"
       y="55.330528" />
  </g>
  <g
     inkscape:groupmode="layer"
     id="layer2"
     inkscape:label="Слой 2"
     transform="translate(-57.090763,-161.18892)">
    <path
       class="cls-1"
       d="m 111.21537,178.98154 h -6.78392 a 4.3127083,4.3127083 0 0 1 -0.37836,-0.33866 5.0403125,5.0403125 0 0 1 -0.74612,-0.97367 4.3365208,4.3365208 0 0 1 -0.70115,0.95779 4.2650833,4.2650833 0 0 1 -0.39687,0.35454 h -9.12283 l -1.41023,-1.40758 0.79375,-0.79375 c 0.68791,0.24342 4.47145,1.56898 5.89756,1.92881 1.57162,0.39688 2.67494,0.0529 3.19352,-0.40481 0.51858,-0.45773 0.63765,-0.95514 0.39687,-1.45785 a 1.2938125,1.2938125 0 0 0 -0.96837,-0.63765 c 0.77787,0.63765 0.70379,1.54781 -0.17198,1.85208 -0.96573,0.32809 -1.65629,0.32809 -3.72533,-0.38893 -2.16165,-0.74613 -4.4794,-2.27807 -4.4794,-2.27807 l -1.56104,1.56105 -1.56104,-1.56105 c 0,0 -2.3204,1.53194 -4.4794,2.27807 -2.069038,0.71702 -2.7596,0.71702 -3.72533,0.38893 -0.87577,-0.29897 -0.949854,-1.20914 -0.174625,-1.85208 a 1.2885208,1.2885208 0 0 0 -0.965729,0.63765 c -0.243416,0.50271 -0.121708,1.00277 0.396875,1.45785 0.518584,0.45508 1.621896,0.79375 3.193519,0.40481 1.42346,-0.35983 5.20965,-1.68539 5.89492,-1.92881 l 0.79375,0.79375 -1.41023,1.41023 h -9.136063 a 4.2650833,4.2650833 0 0 1 -0.396875,-0.35454 4.4502917,4.4502917 0 0 1 -0.703792,-0.95779 4.8339375,4.8339375 0 0 1 -0.746125,0.96043 4.2968333,4.2968333 0 0 1 -0.375708,0.33867 H 70.8717 c -8.556624,0.18256 -12.596812,0.34661 -12.596812,0.48948 0,0.14288 4.040188,0.27781 12.596812,0.39688 h 6.828896 c 0.0926,0.0714 0.185209,0.15345 0.280459,0.24341 a 4.048125,4.048125 0 0 1 0.79375,1.05834 4.5693542,4.5693542 0 0 1 0.8255,-1.05834 c 0.0926,-0.09 0.185208,-0.16933 0.277812,-0.24341 H 88.9983 l 1.41552,1.42081 -0.79375,0.79375 c -0.67733,-0.23813 -4.4741,-1.56898 -5.9002,-1.93146 -1.571628,-0.39688 -2.67494,-0.0503 -3.193524,0.40746 -0.518583,0.45773 -0.640291,0.95514 -0.396875,1.45785 a 1.2885208,1.2885208 0 0 0 0.965729,0.63765 c -0.775229,-0.63765 -0.701145,-1.55046 0.174625,-1.85209 0.96573,-0.32808 1.656292,-0.32808 3.725335,0.38894 2.06904,0.71702 4.3471,2.19075 4.46616,2.27013 h 0.0132 l 1.56104,-1.56104 1.56105,1.56104 v 0 c 0.1217,-0.0794 2.38125,-1.54252 4.46881,-2.27013 2.08756,-0.7276 2.7596,-0.71702 3.72533,-0.38894 0.87577,0.29634 0.94986,1.20915 0.17198,1.85209 a 1.2938125,1.2938125 0 0 0 0.96838,-0.63765 c 0.24077,-0.50271 0.11906,-1.00277 -0.39688,-1.45785 -0.51594,-0.45509 -1.62189,-0.79375 -3.19352,-0.40746 -1.4261,0.36248 -5.22287,1.69333 -5.90021,1.93146 l -0.79375,-0.79375 1.41288,-1.41288 h 9.12018 c 0.09,0.0741 0.18257,0.15346 0.27782,0.24342 a 4.4741042,4.4741042 0 0 1 0.82285,1.05833 4.1275,4.1275 0 0 1 0.79375,-1.05833 c 0.0926,-0.09 0.18786,-0.17198 0.27781,-0.24342 h 6.83155 c 8.55662,-0.11906 12.59681,-0.25135 12.59681,-0.39687 0,-0.14552 -4.00844,-0.30692 -12.56506,-0.48684 z m -21.38892,0.4445 1.21708,-1.21443 1.21709,1.21443 -1.21709,1.21709 z"
       id="path985"
       style="fill:#ffffff;stroke-width:0.264583" />
    <text
       xml:space="preserve"
       style="font-size:16.9333px;line-height:1.25;font-family:Corbel;-inkscape-font-specification:Corbel;stroke-width:0.264583"
       x="55.767849"
       y="172.4585"
       id="text1874"><tspan
         sodipodi:role="line"
         id="tspan1872"
         style="font-style:normal;font-variant:normal;font-weight:bold;font-stretch:normal;font-size:16.9333px;font-family:Corbel;-inkscape-font-specification:'Corbel Bold';fill:#ffffff;fill-opacity:1;stroke-width:0.264583"
         x="55.767849"
         y="172.4585">BURRITO</tspan></text>
    <text
       xml:space="preserve"
       style="font-size:9.87778px;line-height:1.25;font-family:Corbel;-inkscape-font-specification:Corbel;fill:#ffffff;fill-opacity:1;stroke-width:0.264583"
       x="74.573524"
       y="193.16284"
       id="text12888"><tspan
         sodipodi:role="line"
         id="tspan12886"
         style="font-size:9.87778px;fill:#ffffff;fill-opacity:1;stroke-width:0.264583"
         x="74.573524"
         y="193.16284">chilebar</tspan></text>
  </g>
</svg>
